<svg width="512" height="512" viewBox="0 0 512 512" fill="none" xmlns="http://www.w3.org/2000/svg">
<circle cx="256" cy="256" r="256" fill="#84CC16"/>
<path d="M82.8344 277.395L71.057 287.854L65.8715 318H45.0414L68.4203 183H89.2504L75.891 259.641L83.1859 252.082L113.42 222.902H140.051L97.8637 263.508L125.637 318H103.049L82.8344 277.395ZM148.411 318H127.581L144.105 222.902H164.935L148.411 318ZM147.093 198.557C147.093 195.334 148.148 192.58 150.257 190.295C152.366 188.01 155.208 186.809 158.782 186.691C162.181 186.574 164.993 187.629 167.22 189.855C169.505 192.023 170.648 194.689 170.648 197.854C170.648 201.193 169.534 203.947 167.308 206.115C165.14 208.283 162.357 209.426 158.958 209.543C155.618 209.66 152.806 208.664 150.521 206.555C148.236 204.387 147.093 201.721 147.093 198.557ZM165.561 270.363C166.732 260.578 169.369 251.789 173.471 243.996C177.572 236.203 182.641 230.402 188.676 226.594C194.711 222.727 201.42 220.881 208.803 221.057C218.471 221.291 226.029 224.895 231.479 231.867L240.619 183H261.537L238.07 318H219.438L220.844 308.156C213.461 316.184 204.789 320.08 194.828 319.846C185.98 319.729 178.891 316.33 173.559 309.65C168.285 302.912 165.443 293.977 165.033 282.844C164.857 279.211 164.945 275.666 165.297 272.209L165.561 270.363ZM185.775 278.537C185.365 285.803 186.479 291.574 189.115 295.852C191.811 300.129 195.795 302.326 201.068 302.443C209.096 302.678 216.039 298.781 221.898 290.754L229.018 249.885C226.264 242.561 220.932 238.781 213.021 238.547C205.053 238.312 198.637 241.828 193.773 249.094C188.91 256.359 186.244 266.174 185.775 278.537ZM254.692 270.1C255.688 260.783 258.413 252.316 262.866 244.699C267.378 237.082 273.149 231.193 280.18 227.033C287.212 222.873 295.005 220.91 303.559 221.145C311.704 221.262 318.735 223.43 324.653 227.648C330.571 231.867 334.878 237.639 337.573 244.963C340.327 252.287 341.294 260.432 340.473 269.396C339.536 279.475 336.782 288.381 332.212 296.115C327.7 303.85 321.899 309.797 314.809 313.957C307.778 318.059 299.956 319.992 291.343 319.758C283.257 319.641 276.255 317.502 270.337 313.342C264.477 309.123 260.171 303.381 257.417 296.115C254.663 288.791 253.667 280.734 254.429 271.945L254.692 270.1ZM275.171 282.141C275.464 288.293 277.075 293.244 280.005 296.994C282.993 300.686 287.124 302.619 292.397 302.795C299.546 302.971 305.522 300.217 310.327 294.533C315.19 288.85 318.237 281.086 319.468 271.242L319.995 262.629C319.995 255.129 318.501 249.24 315.513 244.963C312.524 240.686 308.188 238.43 302.505 238.195C293.598 237.961 286.567 242.326 281.411 251.291C278.305 256.74 276.343 263.01 275.522 270.1C275.054 275.021 274.936 279.035 275.171 282.141ZM425.123 288.381L451.226 222.902H472.144L430.484 318H413.345L404.996 252.961L374.234 318H357.007L348.306 222.902H367.994L371.597 287.414L401.656 222.902H417.388L425.123 288.381Z" fill="white"/>
</svg>
